<svg width="19" height="14" viewBox="0 0 19 14" fill="none" xmlns="http://www.w3.org/2000/svg">
<path d="M15.5 11.1648C15.5 12.0215 15.456 12.5439 15.3434 12.8776C15.2911 13.0327 15.2298 13.1273 15.1654 13.1922C15.1014 13.2565 15.0111 13.315 14.866 13.3637C14.5498 13.4697 14.062 13.5039 13.2605 13.4996C12.9652 13.4981 12.6163 13.4911 12.2234 13.4832C11.6236 13.4712 10.9211 13.4571 10.15 13.4571C9.40682 13.4571 8.69848 13.4702 8.06514 13.4819C7.61249 13.4903 7.19814 13.498 6.83676 13.4996C5.92193 13.5038 5.24537 13.4722 4.74148 13.3515C4.25652 13.2353 3.98351 13.0494 3.80962 12.772C3.62006 12.4695 3.5 11.9829 3.5 11.1648C3.5 8.06083 6.16102 5.5 9.5 5.5C12.839 5.5 15.5 8.06083 15.5 11.1648ZM3.5 7C3.5 7.82843 2.82843 8.5 2 8.5C1.17157 8.5 0.5 7.82843 0.5 7C0.5 6.17157 1.17157 5.5 2 5.5C2.82843 5.5 3.5 6.17157 3.5 7ZM8.5 2.5C8.5 3.60457 7.60457 4.5 6.5 4.5C5.39543 4.5 4.5 3.60457 4.5 2.5C4.5 1.39543 5.39543 0.5 6.5 0.5C7.60457 0.5 8.5 1.39543 8.5 2.5ZM14.5 2.5C14.5 3.60457 13.6046 4.5 12.5 4.5C11.3954 4.5 10.5 3.60457 10.5 2.5C10.5 1.39543 11.3954 0.5 12.5 0.5C13.6046 0.5 14.5 1.39543 14.5 2.5ZM18.5 7C18.5 7.82843 17.8284 8.5 17 8.5C16.1716 8.5 15.5 7.82843 15.5 7C15.5 6.17157 16.1716 5.5 17 5.5C17.8284 5.5 18.5 6.17157 18.5 7Z" fill="#FFBB55" stroke="#B67352"/>
</svg>
